<?xml version="1.0" standalone="no"?>
<!DOCTYPE svg PUBLIC "-//W3C//DTD SVG 20010904//EN"
 "http://www.w3.org/TR/2001/REC-SVG-20010904/DTD/svg10.dtd">
<svg version="1.0" xmlns="http://www.w3.org/2000/svg"
 width="300.000000pt" height="300.000000pt" viewBox="0 0 300.000000 300.000000"
 preserveAspectRatio="xMidYMid meet">
<metadata>
Created by potrace 1.10, written by Peter Selinger 2001-2011
</metadata>
<g transform="translate(0.000000,300.000000) scale(0.100000,-0.100000)"
fill="#000000" stroke="none">
<path d="M1171 2969 c-133 -22 -268 -124 -329 -249 -40 -81 -52 -145 -52 -271
l0 -99 -231 -2 -232 -3 -18 -25 c-14 -21 -29 -158 -93 -860 -42 -459 -76 -850
-76 -868 0 -82 71 -173 154 -197 41 -12 148 -15 626 -15 l575 0 19 -35 c11
-20 56 -70 100 -113 202 -193 483 -256 745 -167 195 66 342 199 431 390 55
116 74 214 67 344 -8 167 -58 298 -159 424 -92 115 -206 194 -348 242 l-65 22
-37 399 c-20 219 -37 405 -37 412 -1 6 -10 21 -21 32 -19 19 -33 20 -250 20
l-230 0 0 119 c0 182 -36 277 -144 379 -66 63 -156 107 -246 121 -73 12 -74
12 -149 0z m205 -55 c74 -20 167 -86 214 -152 58 -80 80 -161 80 -287 0 -97 2
-105 26 -134 l26 -31 213 0 c176 0 215 -3 225 -15 8 -9 26 -162 49 -409 42
-453 34 -429 146 -466 171 -57 312 -184 395 -355 95 -195 93 -413 -4 -610
-129 -261 -416 -420 -696 -384 -200 25 -352 109 -484 269 l-66 79 -592 3
c-650 3 -618 0 -681 63 -56 57 -56 48 7 738 31 348 59 650 61 672 2 22 7 65 9
95 23 234 29 287 37 302 9 16 30 18 225 18 215 0 215 0 239 25 23 22 25 32 25
113 0 167 31 262 117 353 110 118 265 158 429 113z"/>
<path d="M1177 2869 c-61 -14 -136 -57 -181 -103 -77 -80 -106 -168 -106 -323
0 -76 2 -86 25 -108 l24 -25 314 0 314 0 22 24 c22 23 23 31 20 148 -4 116 -6
128 -37 190 -74 151 -240 234 -395 197z m209 -64 c64 -28 123 -86 155 -151 21
-43 24 -66 27 -176 l4 -128 -322 0 -322 0 4 123 c5 141 21 188 88 260 93 101
239 130 366 72z"/>
<path d="M410 2232 c-27 -22 -21 26 -111 -956 l-63 -689 21 -35 c42 -74 24
-72 618 -72 609 0 582 -4 571 79 -4 25 -9 105 -12 177 -7 156 5 215 68 344 33
68 58 102 127 171 72 72 102 94 181 132 95 46 210 77 288 77 28 0 45 7 62 25
l23 25 -31 342 c-27 285 -35 347 -51 368 -18 25 -19 25 -204 28 l-185 2 -21
-26 c-15 -19 -21 -41 -21 -80 0 -61 -7 -84 -26 -84 -21 0 -34 34 -34 93 0 43
-5 58 -23 75 -23 22 -29 22 -339 22 l-317 0 -20 -26 c-16 -20 -21 -41 -21 -83
0 -68 -12 -91 -37 -75 -14 8 -19 27 -21 75 -2 48 -8 69 -24 86 -21 22 -28 23
-199 23 -156 0 -179 -2 -199 -18z m380 -97 c0 -67 3 -79 25 -100 30 -30 54
-31 89 -4 24 19 26 26 26 100 l0 79 319 0 319 0 4 -80 c3 -85 13 -104 58 -115
18 -4 34 0 53 15 25 20 27 26 27 101 l0 79 185 0 c112 0 185 -4 185 -10 0 -17
60 -654 63 -676 3 -20 -2 -22 -83 -27 -404 -26 -721 -411 -671 -814 6 -52 18
-110 26 -129 l14 -34 -544 0 -545 0 -32 29 -32 29 74 816 75 816 182 0 183 0
0 -75z"/>
<path d="M1972 1386 c-147 -37 -305 -151 -386 -279 -182 -285 -112 -657 161
-859 258 -190 606 -159 832 74 320 329 196 871 -238 1041 -66 26 -91 30 -196
33 -79 2 -138 -1 -173 -10z m293 -41 c195 -50 362 -204 424 -390 32 -95 39
-237 17 -325 -89 -355 -458 -554 -794 -428 -80 30 -196 113 -248 176 -92 113
-137 235 -138 377 -1 109 14 176 62 275 69 143 234 277 388 314 79 19 216 19
289 1z"/>
<path d="M2365 991 c-17 -10 -43 -33 -60 -51 -16 -17 -83 -81 -147 -142 l-118
-110 -77 72 c-43 40 -88 76 -101 81 -31 12 -78 -13 -86 -46 -9 -35 6 -58 78
-125 131 -122 167 -150 191 -150 18 0 76 49 225 191 179 171 200 195 200 224
0 57 -56 87 -105 56z m53 -58 c4 -27 -342 -363 -375 -363 -12 0 -47 23 -80 53
-32 29 -77 71 -101 92 -28 26 -42 46 -40 59 5 38 34 27 114 -43 109 -97 108
-97 247 37 208 200 228 214 235 165z"/>
</g>
</svg>
